<svg width="10" height="10" viewBox="0 0 10 10" fill="none" xmlns="http://www.w3.org/2000/svg">
<path d="M5 0C2.24 0 0 2.24 0 5C0 5.74 0.160022 6.44 0.460022 7.06C0.540022 7.24 0.62998 7.41 0.72998 7.57C1.58998 9.02 3.18 10 5 10C6.82 10 8.41002 9.02 9.27002 7.57C9.37002 7.41 9.45998 7.24 9.53998 7.06C9.83998 6.44 10 5.74 10 5C10 2.24 7.76 0 5 0ZM7.07001 4.57L4.94 6.54C4.8 6.67 4.60999 6.74 4.42999 6.74C4.23999 6.74 4.05002 6.67 3.90002 6.52L2.90997 5.53C2.61997 5.24 2.61997 4.76 2.90997 4.47C3.19997 4.18 3.67997 4.18 3.96997 4.47L4.45001 4.95L6.04999 3.47C6.35999 3.19 6.82999 3.21 7.10999 3.51C7.38999 3.81 7.37001 4.28 7.07001 4.57Z" fill="#1363DF"/>
</svg>
