<svg width="11" height="10" viewBox="0 0 11 10" fill="none" xmlns="http://www.w3.org/2000/svg">
<path d="M9.86625 3.80317C9.74106 3.31491 9.54073 2.82665 9.2653 2.38847C9.07751 2.06296 8.82711 1.74998 8.55168 1.46204C7.65028 0.560634 6.47346 0.0724079 5.27159 0.00981048C3.90696 -0.0778259 2.51733 0.42292 1.46569 1.46204C0.476652 2.45108 -0.0241442 3.76564 0.000894728 5.08018C0.0134142 6.33213 0.51421 7.58411 1.46569 8.54811C2.12922 9.21164 2.94298 9.64979 3.80683 9.8501C4.28257 9.9753 4.78334 10.0254 5.28412 9.9878C6.47347 9.93772 7.63776 9.46203 8.55168 8.54811C9.84119 7.2586 10.2794 5.44322 9.86625 3.80317ZM7.01181 7.00816C6.64875 7.37122 6.04781 7.37122 5.68475 7.00816L4.99616 6.3196L4.33262 6.98317C3.96956 7.34624 3.36863 7.34624 3.00556 6.98317C2.6425 6.60759 2.6425 6.01917 3.00556 5.65611L3.66909 4.99254L3.03063 4.36656C2.66756 3.99098 2.66756 3.40256 3.03063 3.02697C3.40621 2.66391 3.9946 2.66391 4.37018 3.02697L4.99616 3.66548L5.65969 3.00198C6.02275 2.63892 6.61116 2.63892 6.98675 3.00198C7.34981 3.36505 7.34981 3.96598 6.98675 4.32905L6.32322 4.99254L7.01181 5.6811C7.37488 6.04416 7.37488 6.64509 7.01181 7.00816Z" fill="#FF0000"/>
</svg>
